<svg width="40" height="40" viewBox="0 0 40 40" fill="none" xmlns="http://www.w3.org/2000/svg">
<path fill-rule="evenodd" clip-rule="evenodd" d="M25.1286 11.0026L25.8712 10.8973C25.8203 10.538 25.5193 10.2667 25.1566 10.2531L25.1286 11.0026ZM20.75 17.2471C20.9869 17.2003 21.2833 17.1273 21.6154 17.0138C22.4292 16.7357 23.4768 16.207 24.3765 15.2058C25.2792 14.2013 25.6565 13.1403 25.8056 12.3276C25.88 11.9224 25.898 11.5778 25.8968 11.3295C25.8962 11.2051 25.8908 11.1041 25.8851 11.0308C25.8822 10.9942 25.8792 10.9644 25.8767 10.942L25.8734 10.9139L25.8722 10.9042L25.8716 10.9004L25.8714 10.8988L25.8713 10.898C25.8713 10.8977 25.8712 10.8973 25.1286 11.0026C25.1566 10.2531 25.1563 10.2531 25.1559 10.2531L25.1552 10.2531L25.1535 10.253L25.1497 10.2529L25.1398 10.2527L25.1115 10.2523C25.089 10.2521 25.059 10.2522 25.0223 10.2532C24.9488 10.2551 24.8478 10.2602 24.7241 10.2726C24.4772 10.2974 24.1366 10.3514 23.7416 10.4682C22.9493 10.7024 21.9345 11.1908 21.0294 12.198C20.6454 12.6254 20.3497 13.0698 20.1222 13.504C19.8947 13.0698 19.599 12.6254 19.215 12.198C18.3098 11.1908 17.2951 10.7024 16.5027 10.4682C16.1078 10.3514 15.7672 10.2974 15.5202 10.2726C15.3965 10.2602 15.2956 10.2551 15.2221 10.2532C15.1854 10.2522 15.1554 10.2521 15.1329 10.2523L15.1046 10.2527L15.0947 10.2529L15.0909 10.253L15.0892 10.2531L15.0885 10.2531C15.0881 10.2531 15.0878 10.2531 15.1157 11.0026L15.0878 10.2531C14.7251 10.2667 14.4241 10.538 14.3732 10.8973L15.1157 11.0026C14.3732 10.8973 14.3731 10.8977 14.3731 10.898L14.373 10.8988L14.3727 10.9004L14.3722 10.9042L14.371 10.9139L14.3676 10.942C14.3651 10.9644 14.3622 10.9942 14.3593 11.0308C14.3536 11.1041 14.3482 11.2051 14.3476 11.3295C14.3464 11.5778 14.3644 11.9224 14.4388 12.3276C14.5879 13.1403 14.9652 14.2013 15.8679 15.2058C16.7676 16.207 17.8152 16.7357 18.629 17.0138C18.855 17.0911 19.0645 17.1496 19.25 17.1938V19.25H13C12.0335 19.25 11.25 20.0335 11.25 21V22C11.25 22.7447 11.7152 23.3808 12.3708 23.6335L13.8453 30.374C14.0211 31.1774 14.7325 31.75 15.5549 31.75H24.4451C25.2675 31.75 25.9789 31.1774 26.1547 30.374L27.6292 23.6335C28.2848 23.3808 28.75 22.7447 28.75 22V21C28.75 20.0335 27.9665 19.25 27 19.25H20.75V17.2471ZM20 20.75H13C12.8619 20.75 12.75 20.8619 12.75 21V22C12.75 22.1381 12.8619 22.25 13 22.25H27C27.1381 22.25 27.25 22.1381 27.25 22V21C27.25 20.8619 27.1381 20.75 27 20.75H20ZM20.9867 15.4689C20.9724 15.5322 20.9598 15.5937 20.9486 15.653C21.0072 15.6352 21.0679 15.6158 21.1303 15.5944C21.7719 15.3751 22.5758 14.9655 23.2608 14.2032C23.9429 13.4442 24.2206 12.6543 24.3303 12.0568C24.3432 11.9863 24.3538 11.9186 24.3624 11.854C24.2999 11.8691 24.2346 11.8866 24.1669 11.9066C23.5861 12.0783 22.8302 12.4383 22.1451 13.2006C21.4572 13.9661 21.1357 14.8092 20.9867 15.4689ZM13.9318 23.7501L15.3107 30.0534C15.3358 30.1682 15.4374 30.25 15.5549 30.25H24.4451C24.5626 30.25 24.6642 30.1682 24.6893 30.0534L26.0682 23.75L13.9318 23.7501ZM19.2958 15.653C19.2846 15.5937 19.2719 15.5322 19.2577 15.4689C19.1087 14.8092 18.7872 13.9661 18.0993 13.2006C17.4142 12.4383 16.6583 12.0783 16.0775 11.9066C16.0098 11.8866 15.9445 11.8691 15.882 11.854C15.8906 11.9186 15.9012 11.9863 15.9141 12.0568C16.0238 12.6543 16.3015 13.4442 16.9836 14.2032C17.6686 14.9655 18.4725 15.3751 19.1141 15.5944C19.1765 15.6158 19.2371 15.6352 19.2958 15.653Z" fill="url(#paint0_linear_9990_7175)"/>
<defs>
<linearGradient id="paint0_linear_9990_7175" x1="9.5" y1="36" x2="32.907" y2="36.0712" gradientUnits="userSpaceOnUse">
<stop stop-color="#B1B6D6"/>
<stop offset="0.355" stop-color="#F4ACBC"/>
<stop offset="1" stop-color="#F2925C"/>
</linearGradient>
</defs>
</svg>
