<svg width="40" height="40" viewBox="0 0 40 40" fill="none" xmlns="http://www.w3.org/2000/svg">
<path fill-rule="evenodd" clip-rule="evenodd" d="M20 29.5C25.2467 29.5 29.5 25.2467 29.5 20C29.5 14.7533 25.2467 10.5 20 10.5C14.7533 10.5 10.5 14.7533 10.5 20C10.5 25.2467 14.7533 29.5 20 29.5ZM20 31C26.0751 31 31 26.0751 31 20C31 13.9249 26.0751 9 20 9C13.9249 9 9 13.9249 9 20C9 26.0751 13.9249 31 20 31Z" fill="url(#paint0_linear_9990_7205)"/>
<path fill-rule="evenodd" clip-rule="evenodd" d="M20.482 9.42536L20 10L19.5199 9.42383C19.7987 9.19148 20.2039 9.19212 20.482 9.42536ZM20 30C19.4711 30.5318 19.4709 30.5315 19.4706 30.5313L19.4687 30.5294L19.4649 30.5255L19.4529 30.5134C19.4431 30.5034 19.4296 30.4894 19.4126 30.4717C19.3787 30.4361 19.3309 30.3852 19.2714 30.3192C19.1523 30.1873 18.9858 29.9951 18.7877 29.7457C18.3919 29.2474 17.8682 28.5184 17.3455 27.5839C16.3006 25.7162 15.25 23.0097 15.25 19.6774C15.25 16.3408 16.3033 13.7871 17.3611 12.0668C17.8894 11.2077 18.4191 10.5556 18.8206 10.1149C19.0215 9.89433 19.1908 9.72618 19.3125 9.61095C19.3734 9.55332 19.4224 9.50887 19.4576 9.47768C19.4753 9.46208 19.4894 9.44979 19.4999 9.44081L19.5127 9.42983L19.517 9.42621L19.5186 9.42487L19.5199 9.42383C19.5202 9.42359 19.5199 9.42383 20 10C20.482 9.42536 20.4817 9.42511 20.482 9.42536L20.4832 9.42639L20.4848 9.42773L20.4891 9.43135L20.5019 9.44236C20.5123 9.45136 20.5264 9.4637 20.544 9.47936C20.5791 9.51068 20.6281 9.55532 20.6889 9.61319C20.8105 9.7289 20.9797 9.89773 21.1804 10.119C21.5817 10.5613 22.1111 11.2152 22.6392 12.0754C23.6964 13.7976 24.75 16.3511 24.75 19.6774C24.75 22.9993 23.6992 25.7057 22.6548 27.5754C22.1322 28.5111 21.6087 29.2419 21.2131 29.7417C21.0151 29.9918 20.8487 30.1847 20.7297 30.3171C20.6702 30.3833 20.6226 30.4344 20.5887 30.4701C20.5717 30.4879 20.5582 30.5019 20.5484 30.5119L20.5365 30.5241L20.5327 30.528L20.5313 30.5293C20.5311 30.5296 20.5303 30.5303 20 30ZM20 30L19.4706 30.5313C19.7638 30.8228 20.238 30.8227 20.5303 30.5303L20 30ZM19.9989 28.8586C20.0114 28.8429 20.0241 28.827 20.0369 28.8107C20.3913 28.363 20.8678 27.6986 21.3452 26.8439C22.3008 25.1331 23.25 22.6781 23.25 19.6774C23.25 16.6811 22.3036 14.3959 21.3608 12.8601C20.8889 12.0913 20.4183 11.5113 20.0696 11.1269C20.0453 11.1003 20.0217 11.0745 19.9988 11.0498C19.9762 11.0739 19.9531 11.099 19.9294 11.125C19.5809 11.5076 19.1106 12.0853 18.6389 12.8525C17.6967 14.3849 16.75 16.67 16.75 19.6774C16.75 22.6892 17.6994 25.1441 18.6545 26.8516C19.1318 27.7047 19.6081 28.3668 19.9623 28.8128C19.9746 28.8283 19.9868 28.8436 19.9989 28.8586ZM19.5167 10.5735C19.5164 10.5733 19.5165 10.5733 19.5167 10.5735V10.5735ZM20.4815 10.575C20.4817 10.5749 20.4817 10.5748 20.4815 10.575V10.575Z" fill="url(#paint1_linear_9990_7205)"/>
<path fill-rule="evenodd" clip-rule="evenodd" d="M9.75 17C9.75 16.5858 10.0858 16.25 10.5 16.25H29C29.4142 16.25 29.75 16.5858 29.75 17C29.75 17.4142 29.4142 17.75 29 17.75H10.5C10.0858 17.75 9.75 17.4142 9.75 17ZM9.75 23.5C9.75 23.0858 10.0858 22.75 10.5 22.75H29C29.4142 22.75 29.75 23.0858 29.75 23.5C29.75 23.9142 29.4142 24.25 29 24.25H10.5C10.0858 24.25 9.75 23.9142 9.75 23.5Z" fill="url(#paint2_linear_9990_7205)"/>
<defs>
<linearGradient id="paint0_linear_9990_7205" x1="7.5" y1="35" x2="38.1246" y2="32.9978" gradientUnits="userSpaceOnUse">
<stop stop-color="#B1B6D6"/>
<stop offset="0.355" stop-color="#F4ACBC"/>
<stop offset="1" stop-color="#F2925C"/>
</linearGradient>
<linearGradient id="paint1_linear_9990_7205" x1="7.5" y1="35" x2="38.1246" y2="32.9978" gradientUnits="userSpaceOnUse">
<stop stop-color="#B1B6D6"/>
<stop offset="0.355" stop-color="#F4ACBC"/>
<stop offset="1" stop-color="#F2925C"/>
</linearGradient>
<linearGradient id="paint2_linear_9990_7205" x1="7.5" y1="35" x2="38.1246" y2="32.9978" gradientUnits="userSpaceOnUse">
<stop stop-color="#B1B6D6"/>
<stop offset="0.355" stop-color="#F4ACBC"/>
<stop offset="1" stop-color="#F2925C"/>
</linearGradient>
</defs>
</svg>
