<svg width="40" height="40" viewBox="0 0 40 40" fill="none" xmlns="http://www.w3.org/2000/svg">
<path fill-rule="evenodd" clip-rule="evenodd" d="M20.482 10.4254L20 11L19.5199 10.4238C19.7987 10.1915 20.2039 10.1921 20.482 10.4254ZM27.3013 12.9084C27.1618 12.1715 27.1615 12.1715 27.1612 12.1716L27.1606 12.1717L27.1592 12.172L27.1559 12.1726L27.1466 12.1745L27.1179 12.1804C27.0945 12.1854 27.0625 12.1926 27.0224 12.2022C26.9424 12.2214 26.8302 12.2505 26.6909 12.292C26.4127 12.375 26.025 12.5083 25.5687 12.7127C24.8476 13.0359 23.9504 13.5393 23.0436 14.3073C22.7754 13.5943 22.4576 12.9771 22.1392 12.4584C21.7361 11.8019 21.3317 11.3022 21.0242 10.9633C20.8703 10.7937 20.7402 10.6637 20.6459 10.5741C20.5988 10.5292 20.5606 10.4943 20.5328 10.4696C20.5188 10.4572 20.5075 10.4473 20.499 10.4399L20.4883 10.4307L20.4846 10.4276L20.4831 10.4263L20.4825 10.4258C20.4822 10.4256 20.482 10.4254 20 11C19.5199 10.4238 19.5196 10.4241 19.5193 10.4243L19.5187 10.4248L19.5172 10.4261L19.5135 10.4292L19.5027 10.4384C19.4942 10.4457 19.4828 10.4556 19.4689 10.4679C19.441 10.4926 19.4027 10.5274 19.3555 10.572C19.2611 10.6614 19.1309 10.7908 18.9768 10.9599C18.6691 11.2977 18.2644 11.7961 17.8611 12.4519C17.5427 12.9698 17.2249 13.5865 16.9568 14.2993C16.083 13.561 15.2187 13.0682 14.513 12.7453C14.0375 12.5278 13.6321 12.3865 13.3408 12.2986C13.1951 12.2546 13.0775 12.2239 12.9937 12.2037C12.9517 12.1936 12.9182 12.1861 12.8937 12.1808L12.8638 12.1746L12.8541 12.1727L12.8506 12.172L12.8492 12.1717L12.8486 12.1716C12.8483 12.1716 12.848 12.1715 12.7085 12.9084L12.848 12.1715C12.4914 12.104 12.1376 12.3015 12.008 12.6406L12.7085 12.9084C12.008 12.6406 12.0079 12.6408 12.0078 12.6411L12.0076 12.6417L12.0071 12.643L12.0058 12.6463L12.0024 12.6554L11.9922 12.6837C11.9839 12.707 11.9728 12.7391 11.9596 12.7796C11.9331 12.8605 11.8978 12.9752 11.859 13.1205C11.7815 13.4109 11.6891 13.8249 11.6235 14.3373C11.5208 15.1394 11.4828 16.188 11.6727 17.3823C10.8769 17.2278 10.1428 17.178 9.50235 17.1851C8.73254 17.1937 8.09697 17.2845 7.64896 17.3747C7.42473 17.4199 7.24676 17.465 7.1216 17.5C7.059 17.5175 7.00953 17.5325 6.97401 17.5437C6.95624 17.5493 6.94196 17.554 6.93125 17.5576L6.91789 17.5621L6.91324 17.5637L6.91143 17.5643L6.91066 17.5645C6.91031 17.5647 6.90997 17.5648 7.1572 18.2729L6.90997 17.5648C6.56731 17.6844 6.35949 18.0323 6.41651 18.3907L7.1572 18.2729C6.41651 18.3907 6.41657 18.3911 6.41663 18.3914L6.41676 18.3922L6.41706 18.3941L6.41786 18.3989L6.42022 18.4128C6.42216 18.4239 6.42482 18.4387 6.4283 18.457C6.43526 18.4936 6.4455 18.5443 6.45973 18.6078C6.48818 18.7348 6.53267 18.9131 6.599 19.1324C6.73153 19.5704 6.95211 20.1742 7.30793 20.8575C8.02061 22.2261 9.27861 23.9174 11.4535 25.2215C12.1744 25.6537 12.8962 25.9836 13.5984 26.2332C13.2012 26.5588 12.8806 26.895 12.63 27.1976C12.3781 27.5018 12.194 27.7755 12.071 27.9769C12.0094 28.0778 11.9628 28.161 11.9304 28.2214C11.9143 28.2517 11.9016 28.2763 11.8924 28.2946L11.8811 28.3174L11.8774 28.3251L11.876 28.328L11.8755 28.3292L11.8752 28.3297C11.8751 28.33 11.875 28.3302 12.553 28.6509L11.875 28.3302C11.6982 28.704 11.8573 29.1503 12.2305 29.328L12.553 28.6509C12.2305 29.328 12.2308 29.3281 12.2311 29.3283L12.2317 29.3285L12.233 29.3292L12.2362 29.3307L12.2449 29.3347L12.2712 29.3466C12.2927 29.3562 12.3219 29.3688 12.3584 29.3839C12.4314 29.414 12.5341 29.4538 12.663 29.4978C12.9203 29.5855 13.2852 29.6905 13.7302 29.7662C14.6184 29.9172 15.8467 29.9545 17.1748 29.4832C18.5071 29.0104 19.3842 28.2232 19.9272 27.5507C19.9504 27.522 19.9729 27.4935 19.9949 27.4653C20.0169 27.4935 20.0394 27.522 20.0626 27.5507C20.6057 28.2232 21.4827 29.0104 22.815 29.4832C24.1432 29.9545 25.3714 29.9172 26.2596 29.7662C26.7047 29.6905 27.0695 29.5855 27.3269 29.4978C27.4557 29.4539 27.5584 29.414 27.6314 29.3839C27.668 29.3688 27.6971 29.3562 27.7186 29.3466L27.7449 29.3347L27.7536 29.3307L27.7568 29.3292L27.7582 29.3286L27.7587 29.3283C27.759 29.3281 27.7593 29.328 27.4368 28.6509L27.7593 29.328C28.1326 29.1503 28.2916 28.704 28.1149 28.3302L27.4368 28.6509C28.1149 28.3302 28.1147 28.33 28.1146 28.3297L28.1143 28.3292L28.1137 28.3279L28.1123 28.3249L28.1085 28.317L28.0968 28.2934C28.0872 28.2743 28.074 28.2487 28.0571 28.2173C28.0234 28.1544 27.9747 28.0678 27.9103 27.963C27.7817 27.7537 27.5889 27.4697 27.3248 27.1557C27.0817 26.8666 26.7755 26.5491 26.4006 26.2408C27.1095 25.9903 27.8386 25.6582 28.5667 25.2216C30.7417 23.9174 31.9997 22.2261 32.7123 20.8576C33.0682 20.1743 33.2887 19.5704 33.4213 19.1324C33.4876 18.9132 33.5321 18.7348 33.5605 18.6079C33.5748 18.5444 33.585 18.4937 33.592 18.4571C33.5955 18.4387 33.5981 18.424 33.6001 18.4129L33.6024 18.399L33.6032 18.3942L33.6035 18.3923L33.6036 18.3915C33.6037 18.3911 33.6038 18.3908 32.8631 18.2729L33.6038 18.3908C33.6608 18.0323 33.453 17.6845 33.1103 17.5648L32.8631 18.2729C33.1103 17.5648 33.11 17.5647 33.1096 17.5646L33.1088 17.5643L33.107 17.5637L33.1024 17.5621L33.089 17.5576L33.0735 17.5525L33.0463 17.5438C33.0107 17.5326 32.9613 17.5176 32.8987 17.5001C32.7735 17.4651 32.5955 17.4199 32.3713 17.3748C31.9233 17.2846 31.2877 17.1938 30.5179 17.1852C29.8745 17.178 29.1367 17.2284 28.3368 17.3845C28.5195 16.2366 28.4917 15.2232 28.3982 14.434C28.3341 13.8931 28.2389 13.4551 28.158 13.1479C28.1176 12.9942 28.0806 12.8728 28.0527 12.7872C28.0388 12.7444 28.0271 12.7105 28.0184 12.6859L28.0076 12.6561L28.004 12.6465L28.0028 12.6431L28.0022 12.6417L28.002 12.6411C28.0019 12.6408 28.0018 12.6405 27.3013 12.9084ZM27.3013 12.9084L27.1618 12.1715C27.5184 12.104 27.8722 12.3015 28.0018 12.6405L27.3013 12.9084ZM13.2882 17.8272C13.9433 18.0627 14.622 18.3764 15.3104 18.7892C15.665 19.0018 15.9978 19.2261 16.3101 19.4588C16.2712 19.0717 16.25 18.6712 16.25 18.2581C16.25 17.4052 16.3403 16.6193 16.4908 15.9017C15.5732 15.0045 14.6267 14.4468 13.8889 14.1093C13.6414 13.9961 13.4181 13.908 13.2283 13.8404C13.1868 14.0335 13.1451 14.2644 13.1113 14.5279C13.0045 15.3623 12.9788 16.515 13.2882 17.8272ZM13.7853 28.1543C14.1662 27.6943 14.7417 27.1479 15.5431 26.7491C16.2245 26.8719 16.8623 26.929 17.4325 26.9466C17.8078 26.9581 18.1548 26.9525 18.4672 26.937C18.0588 27.3528 17.4782 27.7839 16.6732 28.0695C15.6477 28.4334 14.6904 28.4079 13.9816 28.2874C13.8892 28.2717 13.8014 28.2544 13.7187 28.2363C13.7401 28.2094 13.7623 28.182 13.7853 28.1543ZM17.8455 24.2795C18.0949 24.7254 18.3448 25.11 18.5709 25.4286C18.2526 25.4496 17.8848 25.4598 17.4786 25.4473C16.0323 25.4028 14.1206 25.0717 12.2249 23.935C10.333 22.8006 9.24997 21.3392 8.63835 20.1647C8.36505 19.6399 8.18641 19.1731 8.07302 18.8206C8.43591 18.7543 8.9296 18.6916 9.51907 18.685C10.8406 18.6703 12.6399 18.9369 14.5391 20.0757C15.4564 20.6257 16.2081 21.2658 16.8214 21.9217C17.1113 22.8332 17.479 23.6244 17.8455 24.2795ZM26.7206 17.8314C27.0209 16.5602 27.0068 15.4387 26.9086 14.6105C26.8733 14.3125 26.8273 14.0535 26.7814 13.8404C26.6075 13.9023 26.4053 13.9815 26.1822 14.0816C25.4337 14.417 24.456 14.983 23.5099 15.9106C23.66 16.6261 23.75 17.4092 23.75 18.2581C23.75 18.677 23.7281 19.0831 23.6879 19.4756C24.0066 19.2369 24.3468 19.0069 24.7098 18.7893C25.3942 18.3789 26.069 18.0664 26.7206 17.8314ZM23.1774 21.9184C22.8877 22.8278 22.5206 23.6181 22.1548 24.273C21.9046 24.7209 21.6541 25.1073 21.4275 25.4272C21.7507 25.4492 22.1261 25.4601 22.5416 25.4473C23.988 25.4029 25.8996 25.0718 27.7953 23.9351C29.6873 22.8007 30.7703 21.3393 31.3819 20.1648C31.6552 19.6399 31.8339 19.1732 31.9473 18.8207C31.5844 18.7543 31.0907 18.6917 30.5012 18.6851C29.1797 18.6704 27.3804 18.9369 25.4812 20.0757C24.5596 20.6283 23.8053 21.2717 23.1906 21.9307L23.1774 21.9184ZM21.5211 26.9355C21.9296 27.3517 22.5106 27.7835 23.3166 28.0696C24.3421 28.4334 25.2994 28.4079 26.0082 28.2874C26.1006 28.2717 26.1884 28.2544 26.2711 28.2363C26.2412 28.1987 26.2098 28.1603 26.1769 28.1212C25.7971 27.6696 25.2328 27.142 24.4548 26.7531C23.7818 26.8732 23.1517 26.9293 22.5877 26.9466C22.1996 26.9586 21.8417 26.9522 21.5211 26.9355ZM19.9989 24.8391C20.2428 24.518 20.5437 24.0814 20.8452 23.5415C21.5509 22.2782 22.25 20.4684 22.25 18.2581C22.25 16.0521 21.5536 14.3717 20.8608 13.2432C20.5513 12.7389 20.2428 12.3457 19.9988 12.0671C19.7553 12.3442 19.4477 12.7354 19.1389 13.2376C18.4467 14.3634 17.75 16.0436 17.75 18.2581C17.75 20.4768 18.4494 22.2865 19.1546 23.5472C19.4553 24.0849 19.7555 24.5195 19.9989 24.8391Z" fill="url(#paint0_linear_9990_7121)"/>
<defs>
<linearGradient id="paint0_linear_9990_7121" x1="4.99991" y1="34" x2="39.0576" y2="33.9242" gradientUnits="userSpaceOnUse">
<stop stop-color="#B1B6D6"/>
<stop offset="0.355" stop-color="#F4ACBC"/>
<stop offset="1" stop-color="#F2925C"/>
</linearGradient>
</defs>
</svg>
