<svg width="40" height="40" viewBox="0 0 40 40" fill="none" xmlns="http://www.w3.org/2000/svg">
<path fill-rule="evenodd" clip-rule="evenodd" d="M27.954 9.95871C28.1078 9.92993 28.25 10.048 28.25 10.2044V12.2692L16.75 14.421V12.2627C16.75 12.1423 16.8357 12.0391 16.954 12.0169L27.954 9.95871ZM28.25 21.8999V13.7952L16.75 15.947V26.5C16.75 26.5 16.75 26.5 16.75 26.5C16.75 28.4172 14.9372 29.75 13 29.75C11.0628 29.75 9.25 28.4172 9.25 26.5C9.25 24.5828 11.0628 23.25 13 23.25C13.8137 23.25 14.6053 23.4851 15.25 23.8999V12.2627C15.25 11.4203 15.8501 10.6974 16.6781 10.5425L27.6781 8.4843C28.7549 8.28282 29.75 9.10898 29.75 10.2044V24.5C29.75 24.5 29.75 24.5 29.75 24.5C29.75 26.4172 27.9372 27.75 26 27.75C24.0628 27.75 22.25 26.4172 22.25 24.5C22.25 22.5828 24.0628 21.25 26 21.25C26.8137 21.25 27.6053 21.4851 28.25 21.8999ZM26 22.75C24.6235 22.75 23.75 23.6557 23.75 24.5C23.75 25.3443 24.6235 26.25 26 26.25C27.3765 26.25 28.25 25.3443 28.25 24.5C28.25 23.6557 27.3765 22.75 26 22.75ZM13 24.75C11.6235 24.75 10.75 25.6557 10.75 26.5C10.75 27.3443 11.6235 28.25 13 28.25C14.3765 28.25 15.25 27.3443 15.25 26.5C15.25 25.6557 14.3765 24.75 13 24.75Z" fill="url(#paint0_linear_9990_7199)"/>
<defs>
<linearGradient id="paint0_linear_9990_7199" x1="9.07321" y1="31.6666" x2="35.0135" y2="32.1078" gradientUnits="userSpaceOnUse">
<stop stop-color="#B1B6D6"/>
<stop offset="0.355" stop-color="#F4ACBC"/>
<stop offset="1" stop-color="#F2925C"/>
</linearGradient>
</defs>
</svg>
