<svg width="40" height="40" viewBox="0 0 40 40" fill="none" xmlns="http://www.w3.org/2000/svg">
<path fill-rule="evenodd" clip-rule="evenodd" d="M16.25 10C16.25 9.0335 17.0335 8.25 18 8.25H22C22.9665 8.25 23.75 9.0335 23.75 10V11.25H28C28.9665 11.25 29.75 12.0335 29.75 13V14C29.75 14.7622 29.2628 15.4105 28.5828 15.6506C28.6196 15.8317 28.6281 16.0223 28.6037 16.2171L26.8537 30.2171C26.7443 31.0928 25.9998 31.75 25.1173 31.75H14.8828C14.0003 31.75 13.2558 31.0928 13.1463 30.2171L11.3963 16.2172C11.372 16.0224 11.3805 15.8318 11.4173 15.6507C10.7373 15.4106 10.25 14.7622 10.25 14V13C10.25 12.0335 11.0335 11.25 12 11.25H16.25V10ZM22.25 10V11.25H17.75V10C17.75 9.86193 17.8619 9.75 18 9.75H22C22.1381 9.75 22.25 9.86193 22.25 10ZM12 12.75H16.25H23.75H28C28.1381 12.75 28.25 12.8619 28.25 13V14C28.25 14.1381 28.1381 14.25 28 14.25H26.8672H12C11.8619 14.25 11.75 14.1381 11.75 14V13C11.75 12.8619 11.8619 12.75 12 12.75ZM26.8673 15.75L13.1328 15.7501C12.9825 15.7501 12.8661 15.8819 12.8848 16.0311L14.6348 30.031C14.6504 30.1561 14.7567 30.25 14.8828 30.25H25.1173C25.2433 30.25 25.3497 30.1561 25.3653 30.031L27.1153 16.031C27.134 15.8818 27.0176 15.75 26.8673 15.75ZM21.0467 18.375C20.5656 17.5417 19.3628 17.5417 18.8817 18.375L18.0309 19.8486C17.8238 20.2073 17.9467 20.666 18.3054 20.8731C18.6641 21.0802 19.1228 20.9573 19.3299 20.5986L19.9642 19.5L20.6218 20.6389C20.8289 20.9977 21.2876 21.1206 21.6463 20.9135C22.005 20.7064 22.1279 20.2477 21.9208 19.8889L21.0467 18.375ZM18.3043 22.375C18.5114 22.0163 18.3885 21.5576 18.0298 21.3505C17.6711 21.1434 17.2124 21.2663 17.0053 21.625L16.2836 22.875C15.8025 23.7083 16.4039 24.75 17.3661 24.75H18.964C19.3782 24.75 19.714 24.4142 19.714 24C19.714 23.5858 19.3782 23.25 18.964 23.25H17.7991L18.3043 22.375ZM22.9231 21.625C22.716 21.2663 22.2573 21.1434 21.8986 21.3505C21.5399 21.5576 21.417 22.0163 21.6241 22.375L22.1293 23.25H20.964C20.5498 23.25 20.214 23.5858 20.214 24C20.214 24.4142 20.5498 24.75 20.964 24.75H22.5623C23.5245 24.75 24.1259 23.7083 23.6448 22.875L22.9231 21.625Z" fill="url(#paint0_linear_9990_7183)"/>
<defs>
<linearGradient id="paint0_linear_9990_7183" x1="8.5" y1="35" x2="31.7891" y2="36.3355" gradientUnits="userSpaceOnUse">
<stop stop-color="#B1B6D6"/>
<stop offset="0.355" stop-color="#F4ACBC"/>
<stop offset="1" stop-color="#F2925C"/>
</linearGradient>
</defs>
</svg>
