<svg width="40" height="40" viewBox="0 0 40 40" fill="none" xmlns="http://www.w3.org/2000/svg">
<path d="M17.179 22.81L16.6486 22.2797C16.3922 22.5361 16.356 22.9392 16.5625 23.2372C16.769 23.5352 17.1592 23.6428 17.4893 23.4928L17.179 22.81ZM28.4927 11.4964L29.2398 11.4308C29.2081 11.0693 28.9221 10.7823 28.5606 10.7494L28.4927 11.4964ZM19.0255 24.6565L18.4951 25.1869L18.8368 25.5285L19.2891 25.3587L19.0255 24.6565ZM15.3295 20.9606L14.6275 20.6967L14.4574 21.1492L14.7992 21.491L15.3295 20.9606ZM15.3777 26.6649L14.9013 26.0856L15.3777 26.6649ZM11.5221 28.4669L10.7741 28.4129C10.7584 28.6297 10.8376 28.8425 10.991 28.9964C11.1444 29.1503 11.357 29.2301 11.5737 29.2152L11.5221 28.4669ZM13.3244 24.6116L13.9039 25.0877L13.3244 24.6116ZM22.8387 25.5161L23.5337 25.798L22.8387 25.5161ZM19.1664 29.248L18.9381 28.5336C18.795 28.5793 18.669 28.6669 18.5763 28.785L19.1664 29.248ZM14.5097 17.1871L14.2277 16.4921L14.5097 17.1871ZM10.7778 20.8595L11.2407 21.4495C11.3589 21.3568 11.4465 21.2308 11.4922 21.0878L10.7778 20.8595ZM19.3516 16.0412C21.4782 13.9147 23.7634 12.9683 25.5132 12.5509C26.3893 12.342 27.1304 12.2661 27.6473 12.242C27.9055 12.23 28.107 12.2309 28.2406 12.2346C28.3073 12.2364 28.357 12.2389 28.3882 12.2408C28.4038 12.2417 28.4148 12.2425 28.4209 12.243C28.424 12.2432 28.4259 12.2434 28.4265 12.2434C28.4269 12.2435 28.4269 12.2435 28.4266 12.2434C28.4265 12.2434 28.4262 12.2434 28.4259 12.2434C28.4258 12.2434 28.4255 12.2433 28.4254 12.2433C28.4251 12.2433 28.4248 12.2433 28.4927 11.4964C28.5606 10.7494 28.5602 10.7494 28.5599 10.7494C28.5597 10.7494 28.5593 10.7493 28.559 10.7493C28.5584 10.7492 28.5577 10.7492 28.5569 10.7491C28.5554 10.749 28.5535 10.7488 28.5513 10.7486C28.5469 10.7483 28.5413 10.7478 28.5344 10.7473C28.5207 10.7463 28.502 10.7449 28.4785 10.7435C28.4316 10.7407 28.3655 10.7375 28.2817 10.7352C28.1141 10.7306 27.8755 10.7297 27.5775 10.7436C26.9819 10.7713 26.1462 10.8579 25.1652 11.0919C23.2009 11.5603 20.6503 12.6212 18.291 14.9806L19.3516 16.0412ZM28.4927 11.4964C27.7456 11.5619 27.7455 11.5616 27.7455 11.5613C27.7455 11.5612 27.7455 11.5609 27.7455 11.5608C27.7454 11.5605 27.7454 11.5603 27.7454 11.5601C27.7454 11.5599 27.7454 11.5599 27.7454 11.5602C27.7455 11.5609 27.7456 11.5628 27.7459 11.5659C27.7463 11.5721 27.7471 11.5832 27.748 11.5989C27.7498 11.6302 27.7521 11.6801 27.7538 11.7472C27.7571 11.8812 27.7576 12.0834 27.745 12.3424C27.7198 12.8608 27.6425 13.6036 27.4325 14.481C27.0132 16.2336 26.0665 18.5187 23.9478 20.6374L25.0085 21.6981C27.3605 19.3461 28.4211 16.7955 28.8914 14.8301C29.1262 13.8484 29.2143 13.0117 29.2432 12.4152C29.2577 12.1168 29.2575 11.8778 29.2533 11.71C29.2513 11.6261 29.2482 11.5599 29.2455 11.5129C29.2442 11.4894 29.2429 11.4707 29.2419 11.4569C29.2414 11.4501 29.241 11.4444 29.2406 11.4401C29.2404 11.4379 29.2403 11.436 29.2401 11.4345C29.2401 11.4337 29.24 11.433 29.24 11.4324C29.2399 11.4321 29.2399 11.4317 29.2399 11.4316C29.2399 11.4312 29.2398 11.4308 28.4927 11.4964ZM23.9478 20.6374C22.2646 22.3207 20.4022 23.3386 18.7619 23.9544L19.2891 25.3587C21.0877 24.6834 23.1452 23.5614 25.0085 21.6981L23.9478 20.6374ZM19.5558 24.1262C18.6325 23.203 18.1709 22.7413 17.9401 22.5105C17.8247 22.3951 17.767 22.3374 17.7381 22.3085C17.7237 22.2941 17.7165 22.2869 17.7129 22.2833C17.7111 22.2815 17.7102 22.2806 17.7097 22.2801C17.7095 22.2799 17.7094 22.2798 17.7093 22.2797C17.7093 22.2797 17.7093 22.2797 17.7093 22.2797C17.7093 22.2797 17.7093 22.2797 17.7093 22.2797C17.7093 22.2797 17.7092 22.2796 17.7092 22.2796C17.7092 22.2796 17.7092 22.2796 17.7092 22.2796C17.3126 22.072 16.8685 22.1273 17.179 22.81C17.4894 23.4927 17.0453 23.548 16.6488 23.3405C16.6487 23.3405 16.6487 23.3404 16.6487 23.3404C16.6487 23.3404 16.6487 23.3404 16.6487 23.3404C16.6487 23.3404 16.6486 23.3404 16.6486 23.3404C16.6487 23.3404 16.6487 23.3404 16.6487 23.3404C16.6487 23.3405 16.6489 23.3406 16.6491 23.3408C16.6495 23.3413 16.6504 23.3422 16.6522 23.344C16.6558 23.3476 16.6631 23.3548 16.6775 23.3692C16.7063 23.3981 16.764 23.4558 16.8794 23.5712C17.1102 23.802 17.5719 24.2636 18.4951 25.1869L19.5558 24.1262ZM17.179 22.81C17.7093 23.3404 17.929 22.8101 17.7094 22.2798C17.7094 22.2798 17.7094 22.2798 17.7094 22.2798C17.7093 22.2797 17.7093 22.2797 17.7093 22.2797C17.7093 22.2797 17.7093 22.2797 17.7093 22.2797C17.7093 22.2797 17.7093 22.2797 17.7092 22.2796C17.7092 22.2796 17.7091 22.2795 17.7088 22.2792C17.7084 22.2788 17.7075 22.2779 17.7057 22.2761C17.7021 22.2725 17.6948 22.2652 17.6804 22.2508C17.6515 22.2219 17.5937 22.1641 17.4781 22.0485C17.2469 21.8173 16.7846 21.355 15.8599 20.4303L14.7992 21.491C15.7239 22.4157 16.1863 22.878 16.4175 23.1092C16.533 23.2248 16.5908 23.2826 16.6197 23.3115C16.6342 23.3259 16.6414 23.3331 16.645 23.3367C16.6468 23.3385 16.6477 23.3394 16.6482 23.3399C16.6484 23.3401 16.6485 23.3402 16.6486 23.3403C16.6486 23.3403 16.6486 23.3403 16.6486 23.3403C16.6486 23.3403 16.6486 23.3403 16.6486 23.3403C16.6486 23.3403 16.6486 23.3403 16.6486 23.3403C16.6485 23.3403 16.6485 23.3402 16.6485 23.3402C16.429 22.8099 16.6486 22.2797 17.179 22.81ZM16.0316 21.2245C16.6469 19.5876 17.6652 17.7276 19.3516 16.0412L18.291 14.9806C16.4253 16.8462 15.3026 18.9007 14.6275 20.6967L16.0316 21.2245ZM14.9013 26.0856C13.9604 26.8594 13.0788 27.2689 12.444 27.4846C12.1262 27.5925 11.8701 27.652 11.6995 27.684C11.6142 27.7 11.5505 27.7092 11.5112 27.714C11.4916 27.7165 11.4782 27.7179 11.4713 27.7186C11.4678 27.7189 11.466 27.719 11.4658 27.719C11.4658 27.7191 11.4661 27.719 11.4669 27.719C11.4673 27.7189 11.4678 27.7189 11.4684 27.7189C11.4687 27.7188 11.469 27.7188 11.4694 27.7188C11.4696 27.7188 11.4699 27.7188 11.4699 27.7187C11.4702 27.7187 11.4705 27.7187 11.5221 28.4669C11.5737 29.2152 11.5741 29.2151 11.5744 29.2151C11.5745 29.2151 11.5748 29.2151 11.5751 29.2151C11.5755 29.215 11.576 29.215 11.5765 29.215C11.5776 29.2149 11.5787 29.2148 11.58 29.2147C11.5826 29.2145 11.5855 29.2143 11.589 29.214C11.5958 29.2134 11.6045 29.2127 11.6148 29.2117C11.6355 29.2097 11.6631 29.2067 11.6971 29.2025C11.7652 29.194 11.8593 29.1802 11.9762 29.1583C12.2099 29.1144 12.5353 29.0378 12.9266 28.9048C13.7097 28.6387 14.7559 28.1472 15.854 27.2442L14.9013 26.0856ZM11.5221 28.4669C12.2702 28.5209 12.2702 28.5212 12.2702 28.5215C12.2701 28.5216 12.2701 28.5219 12.2701 28.522C12.2701 28.5224 12.2701 28.5227 12.27 28.523C12.27 28.5236 12.27 28.5241 12.2699 28.5245C12.2699 28.5252 12.2698 28.5256 12.2698 28.5255C12.2699 28.5253 12.27 28.5234 12.2704 28.5199C12.2711 28.5129 12.2725 28.4993 12.275 28.4796C12.2801 28.4401 12.2894 28.376 12.3056 28.2904C12.3381 28.119 12.3982 27.8621 12.5067 27.5438C12.7233 26.9077 13.1331 26.026 13.9039 25.0877L12.7448 24.1355C11.8449 25.2311 11.3535 26.277 11.0868 27.0601C10.9535 27.4514 10.8763 27.777 10.8319 28.0107C10.8097 28.1277 10.7958 28.2218 10.7871 28.2898C10.7827 28.3239 10.7797 28.3514 10.7777 28.372C10.7767 28.3824 10.7759 28.391 10.7753 28.3978C10.775 28.4012 10.7748 28.4042 10.7746 28.4067C10.7745 28.408 10.7744 28.4091 10.7743 28.4102C10.7743 28.4107 10.7742 28.4112 10.7742 28.4116C10.7742 28.4119 10.7741 28.4122 10.7741 28.4123C10.7741 28.4126 10.7741 28.4129 11.5221 28.4669ZM14.1738 25.1082L14.8809 25.8153L15.9416 24.7546L15.2345 24.0475L14.1738 25.1082ZM15.854 27.2442C16.6603 26.5812 16.6099 25.4229 15.9416 24.7546L14.8809 25.8153C14.9313 25.8657 14.9517 25.9269 14.9509 25.9783C14.9502 26.0255 14.9331 26.0594 14.9013 26.0856L15.854 27.2442ZM13.9039 25.0877C13.93 25.0559 13.9638 25.0389 14.0109 25.0381C14.0622 25.0373 14.1234 25.0578 14.1738 25.1082L15.2345 24.0475C14.5662 23.3793 13.4077 23.3286 12.7448 24.1355L13.9039 25.0877ZM22.1437 25.2341C21.6094 26.5513 20.7912 27.3799 20.111 27.8801C19.7699 28.1309 19.4642 28.2985 19.2486 28.4018C19.141 28.4533 19.0565 28.4884 19.0022 28.5096C18.9751 28.5202 18.9556 28.5273 18.9446 28.5312C18.9391 28.5332 18.9357 28.5343 18.9346 28.5347C18.934 28.5349 18.934 28.5349 18.9346 28.5347C18.9349 28.5346 18.9353 28.5345 18.9359 28.5343C18.9362 28.5342 18.9365 28.5341 18.9369 28.534C18.937 28.5339 18.9373 28.5338 18.9374 28.5338C18.9377 28.5337 18.9381 28.5336 19.1664 29.248C19.3947 29.9624 19.395 29.9623 19.3954 29.9622C19.3955 29.9621 19.3959 29.962 19.3961 29.9619C19.3966 29.9618 19.3972 29.9616 19.3978 29.9614C19.3989 29.961 19.4003 29.9606 19.4018 29.9601C19.4047 29.9591 19.4083 29.9579 19.4125 29.9565C19.4208 29.9537 19.4315 29.9501 19.4444 29.9455C19.4703 29.9363 19.5053 29.9235 19.5483 29.9067C19.6342 29.8731 19.7528 29.8234 19.8964 29.7547C20.183 29.6174 20.5718 29.4032 20.9997 29.0885C21.8576 28.4576 22.8756 27.4203 23.5337 25.798L22.1437 25.2341ZM19.1664 29.248C18.5763 28.785 18.5783 28.7825 18.5803 28.78C18.5809 28.7792 18.583 28.7767 18.5844 28.775C18.5871 28.7715 18.59 28.7681 18.593 28.7645C18.599 28.7575 18.6054 28.7501 18.6123 28.7425C18.626 28.7275 18.6421 28.7111 18.6607 28.6941C18.6971 28.661 18.7486 28.6207 18.8165 28.5852C18.9671 28.5065 19.1767 28.4656 19.3962 28.5395C19.5889 28.6044 19.6985 28.7279 19.7453 28.7901C19.7948 28.8559 19.8192 28.9127 19.8279 28.9344C19.8518 28.9939 19.8308 28.9728 19.8029 28.6945C19.7521 28.1859 19.697 27.0506 19.697 24.5777L18.197 24.5777C18.197 27.0548 18.2515 28.2547 18.3104 28.8437C18.3374 29.1142 18.3712 29.3326 18.4363 29.4943C18.4553 29.5415 18.489 29.6153 18.547 29.6923C18.6021 29.7655 18.719 29.8942 18.9176 29.9611C19.1432 30.0371 19.3575 29.995 19.5113 29.9146C19.5808 29.8783 19.6336 29.837 19.6708 29.8031C19.6898 29.7858 19.7062 29.769 19.7202 29.7538C19.7272 29.7461 19.7337 29.7387 19.7397 29.7315C19.7427 29.728 19.7456 29.7245 19.7484 29.721C19.7498 29.7193 19.7518 29.7168 19.7525 29.7159C19.7545 29.7134 19.7564 29.7109 19.1664 29.248ZM22.6363 22.3568C22.6699 23.188 22.5682 24.1879 22.1437 25.2341L23.5337 25.798C24.0535 24.5168 24.1756 23.2972 24.1351 22.2961L22.6363 22.3568ZM14.2277 16.4921C12.6055 17.1503 11.5681 18.1683 10.9373 19.0261C10.6225 19.4541 10.4083 19.8428 10.2711 20.1295C10.2024 20.273 10.1526 20.3916 10.119 20.4776C10.1022 20.5206 10.0894 20.5555 10.0803 20.5814C10.0757 20.5944 10.072 20.605 10.0692 20.6134C10.0678 20.6175 10.0666 20.6211 10.0657 20.6241C10.0652 20.6256 10.0647 20.6269 10.0644 20.6281C10.0642 20.6287 10.064 20.6292 10.0638 20.6297C10.0637 20.63 10.0636 20.6303 10.0636 20.6305C10.0635 20.6308 10.0634 20.6312 10.7778 20.8595C11.4922 21.0878 11.4921 21.0881 11.492 21.0884C11.4919 21.0885 11.4918 21.0888 11.4918 21.089C11.4917 21.0893 11.4916 21.0897 11.4915 21.09C11.4913 21.0905 11.4911 21.091 11.4911 21.0913C11.4909 21.0918 11.4909 21.0918 11.4911 21.0913C11.4914 21.0901 11.4926 21.0868 11.4945 21.0813C11.4984 21.0702 11.5055 21.0507 11.5161 21.0236C11.5373 20.9693 11.5725 20.8848 11.624 20.7772C11.7272 20.5616 11.8948 20.2559 12.1457 19.9148C12.6459 19.2346 13.4745 18.4165 14.7916 17.8821L14.2277 16.4921ZM10.7778 20.8595C10.3148 20.2694 10.3123 20.2714 10.3098 20.2734C10.309 20.274 10.3064 20.2761 10.3047 20.2775C10.3013 20.2803 10.2978 20.2832 10.2942 20.2862C10.2871 20.2922 10.2796 20.2987 10.272 20.3057C10.2567 20.3196 10.24 20.336 10.2226 20.3551C10.1888 20.3923 10.1475 20.445 10.1112 20.5145C10.0307 20.6684 9.9887 20.8827 10.0646 21.1082C10.1315 21.3069 10.2602 21.4237 10.3335 21.4789C10.4104 21.5368 10.4842 21.5705 10.5314 21.5895C10.6932 21.6546 10.9116 21.6884 11.1821 21.7155C11.7711 21.7743 12.971 21.8289 15.448 21.8288L15.448 20.3288C12.9752 20.3289 11.8399 20.2737 11.3313 20.2229C11.0529 20.1951 11.0319 20.174 11.0914 20.198C11.1131 20.2067 11.1699 20.231 11.2357 20.2805C11.2978 20.3273 11.4214 20.4369 11.4862 20.6296C11.5601 20.8491 11.5193 21.0587 11.4405 21.2094C11.405 21.2773 11.3647 21.3288 11.3316 21.3651C11.3146 21.3838 11.2982 21.3999 11.2832 21.4136C11.2756 21.4205 11.2683 21.4269 11.2612 21.4329C11.2577 21.4358 11.2542 21.4387 11.2508 21.4415C11.2491 21.4429 11.2466 21.4449 11.2457 21.4456C11.2432 21.4476 11.2407 21.4495 10.7778 20.8595ZM17.7296 15.8908C16.7286 15.8503 15.5089 15.9724 14.2277 16.4921L14.7916 17.8821C15.8379 17.4577 16.8378 17.3559 17.669 17.3895L17.7296 15.8908ZM23.7197 18.0371C23.2316 18.5253 22.4401 18.5253 21.952 18.0371L20.8913 19.0978C21.9652 20.1717 23.7065 20.1717 24.7804 19.0978L23.7197 18.0371ZM21.952 18.0371C21.4638 17.5489 21.4638 16.7575 21.952 16.2693L20.8913 15.2087C19.8174 16.2826 19.8174 18.0238 20.8913 19.0978L21.952 18.0371ZM21.952 16.2693C22.4401 15.7812 23.2316 15.7812 23.7197 16.2693L24.7804 15.2087C23.7065 14.1347 21.9652 14.1347 20.8913 15.2087L21.952 16.2693ZM23.7197 16.2693C24.2079 16.7575 24.2079 17.5489 23.7197 18.0371L24.7804 19.0978C25.8543 18.0238 25.8543 16.2826 24.7804 15.2087L23.7197 16.2693Z" fill="url(#paint0_linear_9990_7228)"/>
<defs>
<linearGradient id="paint0_linear_9990_7228" x1="3.50006" y1="33" x2="18.4397" y2="42.6152" gradientUnits="userSpaceOnUse">
<stop stop-color="#B1B6D6"/>
<stop offset="0.355" stop-color="#F4ACBC"/>
<stop offset="1" stop-color="#F2925C"/>
</linearGradient>
</defs>
</svg>
