<svg width="40" height="40" viewBox="0 0 40 40" fill="none" xmlns="http://www.w3.org/2000/svg">
<path fill-rule="evenodd" clip-rule="evenodd" d="M16.25 11C16.25 9.48122 17.4812 8.25 19 8.25H28C29.5188 8.25 30.75 9.48122 30.75 11V19C30.75 20.5188 29.5188 21.75 28 21.75H22.75V26C22.75 27.5188 21.5188 28.75 20 28.75H16.345L13.5694 31.9881C13.3652 32.2264 13.0342 32.3123 12.7398 32.2034C12.4454 32.0945 12.25 31.8139 12.25 31.5V28.75H11C9.48122 28.75 8.25 27.5188 8.25 26V18C8.25 16.4812 9.48122 15.25 11 15.25H16.25V11ZM13 27.25C13.4142 27.25 13.75 27.5858 13.75 28V29.4726L15.4306 27.5119C15.5788 27.339 15.7888 27.2501 16 27.25H20C20.6904 27.25 21.25 26.6904 21.25 26V18C21.25 17.3096 20.6904 16.75 20 16.75H11C10.3096 16.75 9.75 17.3096 9.75 18V26C9.75 26.6904 10.3096 27.25 11 27.25H13ZM29.25 19C29.25 19.6904 28.6904 20.25 28 20.25H22.75V18C22.75 17.9001 22.7447 17.8014 22.7343 17.7043C22.9684 17.469 23.2045 17.2202 23.4128 16.9984C23.4765 16.9305 23.5369 16.8659 23.5936 16.8052C24.0058 17.1042 24.4862 17.4548 24.9135 17.7673C25.2288 17.9979 25.5145 18.2072 25.7213 18.3589L26.0557 18.6042C26.3895 18.8494 26.8593 18.7778 27.1045 18.444C27.3497 18.1101 27.2778 17.6407 26.944 17.3955L26.6083 17.1493C26.4011 16.9973 26.1149 16.7876 25.7989 16.5566C25.4183 16.2782 24.9935 15.9681 24.6114 15.6906C25.2239 14.9194 25.6631 14.0556 25.955 13.0625H26.4997C26.9139 13.0625 27.25 12.7267 27.25 12.3125C27.25 11.8983 26.9142 11.5625 26.5 11.5625H26.125V11C26.125 10.5858 25.7892 10.25 25.375 10.25C24.9608 10.25 24.625 10.5858 24.625 11V11.5625H20.5C20.0858 11.5625 19.75 11.8983 19.75 12.3125C19.75 12.7267 20.0858 13.0625 20.5 13.0625H24.3774C24.1431 13.7079 23.8274 14.271 23.4182 14.781C23.2052 14.5925 22.9881 14.3853 22.7911 14.19C22.613 14.0134 22.4588 13.8538 22.3492 13.7386C22.2945 13.681 22.2512 13.6348 22.2218 13.6032L22.1886 13.5674L22.1805 13.5586L22.1787 13.5566C21.8991 13.251 21.4244 13.2295 21.1188 13.5091C20.8132 13.7887 20.792 14.2631 21.0716 14.5687L21.0757 14.5732L21.086 14.5843L21.1238 14.6252C21.1564 14.6602 21.2034 14.7103 21.2621 14.7721C21.3793 14.8953 21.544 15.0658 21.7349 15.2551C21.9301 15.4486 22.161 15.6703 22.4013 15.8841L22.3191 15.9718C22.2449 16.0508 22.1684 16.132 22.0908 16.2136C21.5864 15.6238 20.8369 15.25 20 15.25H17.75V11C17.75 10.3096 18.3096 9.75 19 9.75H28C28.6904 9.75 29.25 10.3096 29.25 11V19ZM15.4999 17.75C15.7925 17.75 16.0583 17.9201 16.1809 18.1857L19.1809 24.6857C19.3545 25.0618 19.1903 25.5074 18.8142 25.681C18.4381 25.8545 17.9925 25.6904 17.819 25.3143L16.7262 22.9466H14.2737L13.1809 25.3143C13.0073 25.6904 12.5617 25.8545 12.1856 25.681C11.8096 25.5074 11.6454 25.0618 11.819 24.6857L14.819 18.1857C14.9416 17.9201 15.2074 17.75 15.4999 17.75ZM16.0339 21.4466L15.4999 20.2897L14.966 21.4466H16.0339Z" fill="url(#paint0_linear_9990_7150)"/>
<defs>
<linearGradient id="paint0_linear_9990_7150" x1="6" y1="32" x2="32.3466" y2="34.3425" gradientUnits="userSpaceOnUse">
<stop stop-color="#B1B6D6"/>
<stop offset="0.355" stop-color="#F4ACBC"/>
<stop offset="1" stop-color="#F2925C"/>
</linearGradient>
</defs>
</svg>
