<svg width="40" height="40" viewBox="0 0 40 40" fill="none" xmlns="http://www.w3.org/2000/svg">
<path fill-rule="evenodd" clip-rule="evenodd" d="M19.8229 11.338C22.7229 8.43799 26.9923 8.25444 29.3688 10.6309C31.7453 13.0074 31.5617 17.2768 28.6617 20.1769L28.6617 20.1769L28.6617 20.1769L28.6271 20.2112C25.7278 23.0783 21.4828 23.251 19.1158 20.884C16.7393 18.5075 16.9228 14.2381 19.8229 11.338ZM29.7224 21.2375L29.6862 21.2735C27.1973 23.7399 24.5834 24.0166 22.2356 24.2381L22.1536 24.2458C20.037 24.4453 18.1838 24.6199 16.4455 26.0721C16.4305 26.4992 16.26 26.9218 15.934 27.2479L12.3985 30.7834C11.715 31.4668 10.607 31.4668 9.92358 30.7834L9.21647 30.0763C8.53305 29.3929 8.53305 28.2848 9.21647 27.6014L12.752 24.0659C13.0779 23.74 13.5005 23.5695 13.9275 23.5544C15.3797 21.816 15.5544 19.9628 15.7538 17.8462L15.7616 17.7641C15.9841 15.405 16.2625 12.777 18.7621 10.2774L18.7622 10.2774L18.7622 10.2774C22.1106 6.92901 27.3386 6.47939 30.4295 9.57026C33.5203 12.6611 33.0707 17.8892 29.7224 21.2375ZM15.3432 24.1823L15.8174 24.6564C17.0296 23.7427 18.2849 23.3086 19.5219 23.0676C18.9962 22.7664 18.5032 22.3927 18.0551 21.9446C17.607 21.4965 17.2333 21.0035 16.9321 20.4777C16.6911 21.7147 16.257 22.9701 15.3432 24.1823ZM13.8127 25.1266C13.9103 25.0289 14.0686 25.0289 14.1662 25.1266L14.8733 25.8337C14.971 25.9313 14.971 26.0896 14.8733 26.1872L11.3378 29.7228C11.2402 29.8204 11.0819 29.8204 10.9842 29.7228L10.2771 29.0156C10.1795 28.918 10.1795 28.7597 10.2771 28.6621L13.8127 25.1266Z" fill="url(#paint0_linear_9990_7254)"/>
<defs>
<linearGradient id="paint0_linear_9990_7254" x1="1.49992" y1="36.5" x2="25.1579" y2="45.6137" gradientUnits="userSpaceOnUse">
<stop offset="0.118078" stop-color="#B1B6D6"/>
<stop offset="0.476488" stop-color="#F4ACBC"/>
<stop offset="1" stop-color="#F2925C"/>
</linearGradient>
</defs>
</svg>
