<svg width="40" height="40" viewBox="0 0 40 40" fill="none" xmlns="http://www.w3.org/2000/svg">
<path fill-rule="evenodd" clip-rule="evenodd" d="M18.5468 14.2349C18.7512 13.0243 19.1835 12.4978 19.7105 12.2105C20.4138 11.827 21.4654 11.75 23.0886 11.75C23.9707 11.75 24.7132 11.7698 25.3428 11.863C25.9696 11.9558 26.4313 12.1144 26.7777 12.3554C27.4199 12.8019 27.9213 13.7239 27.9213 16.0001C27.9213 18.2515 27.4284 20.3648 26.5553 21.8874C25.6859 23.4035 24.5014 24.25 23.0886 24.25C22.6316 24.25 22.2136 24.1631 21.8301 24.0025C21.9255 23.1331 21.9039 22.2063 21.7776 21.2581C22.2211 21.0924 22.7123 21 23.1708 21C23.6565 21 23.9823 21.0398 24.2704 21.1263C24.5586 21.2127 24.8525 21.3588 25.258 21.6261C25.6038 21.8541 26.0689 21.7586 26.297 21.4128C26.525 21.067 26.4295 20.6018 26.0837 20.3738C25.6113 20.0624 25.1809 19.8334 24.7014 19.6896C24.2219 19.5457 23.7366 19.5 23.1708 19.5C22.6169 19.5 22.04 19.5939 21.4977 19.7679C21.3183 19.0242 21.08 18.2789 20.7885 17.5485C20.7107 17.3534 20.6315 17.1657 20.5509 16.9853C20.6727 16.9969 20.7949 17 20.9208 17C21.1603 17 21.3859 16.9887 21.622 16.9297C21.858 16.8707 22.0624 16.7745 22.2737 16.6618C22.6392 16.4669 22.7775 16.0126 22.5826 15.6471C22.3876 15.2816 21.9333 15.1433 21.5679 15.3383C21.3939 15.431 21.3166 15.4598 21.2582 15.4745C21.1997 15.4891 21.1179 15.5 20.9208 15.5C20.7236 15.5 20.6419 15.4891 20.5834 15.4745C20.5249 15.4598 20.4477 15.431 20.2737 15.3383C20.0604 15.2245 19.8169 15.2242 19.6123 15.3164C19.2851 14.8682 18.9324 14.5082 18.5468 14.2349ZM17.1341 13.644C17.4205 12.3288 18.0124 11.4279 18.9924 10.8935C20.0885 10.2958 21.542 10.25 23.0886 10.25C23.9744 10.25 24.8138 10.2684 25.5624 10.3792C26.3139 10.4904 27.0269 10.7016 27.6341 11.1239C28.8994 12.0037 29.4213 13.5817 29.4213 16.0001C29.4213 18.443 28.8909 20.8297 27.8565 22.6335C26.8185 24.4437 25.2116 25.75 23.0886 25.75C22.5376 25.75 22.0169 25.6608 21.5302 25.4927C21.0589 27.0385 20.0982 28.3218 18.521 28.9512C16.5428 29.7407 14.6003 29.1008 13.0033 27.7845C11.4152 26.4755 10.0808 24.4415 9.17899 22.1819C8.28956 19.9533 8.14171 18.3104 8.94608 17.0344C9.33479 16.4179 9.90335 15.9616 10.5477 15.584C11.1888 15.2084 11.9534 14.8835 12.7755 14.5554C13.5983 14.227 14.3847 13.933 15.121 13.7584C15.7964 13.5983 16.4728 13.5276 17.1341 13.644ZM23.759 15.6471C23.954 15.2816 24.4083 15.1433 24.7737 15.3383C24.9477 15.431 25.0249 15.4598 25.0834 15.4745C25.1419 15.4891 25.2236 15.5 25.4208 15.5C25.6179 15.5 25.6997 15.4891 25.7582 15.4745C25.8166 15.4598 25.8939 15.431 26.0679 15.3383C26.4333 15.1433 26.8876 15.2816 27.0826 15.6471C27.2775 16.0126 27.1392 16.4669 26.7737 16.6618C26.5624 16.7745 26.358 16.8707 26.122 16.9297C25.8859 16.9887 25.6603 17 25.4208 17C25.1813 17 24.9557 16.9887 24.7196 16.9297C24.4836 16.8707 24.2792 16.7745 24.0679 16.6618C23.7024 16.4669 23.5641 16.0126 23.759 15.6471ZM10.5721 21.6259C9.72147 19.4944 9.81633 18.4667 10.215 17.8344C10.4278 17.4968 10.7747 17.1895 11.306 16.8782C11.8405 16.565 12.5117 16.2757 13.3316 15.9485C14.1508 15.6216 14.8477 15.3648 15.467 15.2179C16.0836 15.0718 16.5712 15.048 16.9823 15.1433C17.7442 15.32 18.5517 15.9905 19.3954 18.1045C20.2299 20.1955 20.5554 22.341 20.3089 24.0787C20.0635 25.8091 19.2772 27.0344 17.965 27.5581C16.6592 28.0792 15.288 27.7238 13.9573 26.627C12.6178 25.5229 11.4104 23.7262 10.5721 21.6259ZM11.5857 21.8847C11.9089 22.1437 12.381 22.0917 12.64 21.7685C12.7573 21.6221 12.8227 21.5609 12.877 21.5211C12.9312 21.4814 13.0092 21.4373 13.184 21.3694C13.3687 21.2975 13.4357 21.2843 13.478 21.2803C13.5204 21.2763 13.5886 21.2767 13.7835 21.3124C14.191 21.3871 14.5818 21.1174 14.6565 20.71C14.7313 20.3026 14.4616 19.9117 14.0542 19.837C13.8196 19.794 13.588 19.7631 13.3362 19.787C13.0843 19.8109 12.8627 19.8849 12.6405 19.9713C12.4083 20.0615 12.1941 20.1617 11.9896 20.3117C11.7851 20.4618 11.6253 20.636 11.4695 20.8304C11.2105 21.1536 11.2625 21.6256 11.5857 21.8847ZM16.8353 20.1349C16.5782 20.4597 16.1065 20.5147 15.7817 20.2576C15.4569 20.0006 15.402 19.5289 15.659 19.2041C15.8141 19.0081 15.974 18.8321 16.1791 18.6807C16.3843 18.5292 16.5995 18.4282 16.8324 18.3376C17.0551 18.251 17.278 18.1768 17.5314 18.1537C17.7848 18.1306 18.0174 18.1633 18.2521 18.2081C18.6589 18.2859 18.9257 18.6788 18.8479 19.0856C18.7701 19.4925 18.3772 19.7592 17.9704 19.6814C17.7762 19.6443 17.7088 19.6438 17.6676 19.6475C17.6264 19.6513 17.5602 19.664 17.376 19.7356C17.202 19.8033 17.1241 19.8475 17.0702 19.8873C17.0163 19.9271 16.9511 19.9885 16.8353 20.1349ZM13.3051 24.688C13.3947 24.2835 13.7951 24.0283 14.1995 24.1178C14.6696 24.2219 15.0042 24.2521 15.3122 24.2271C15.6202 24.2021 15.9455 24.1184 16.3926 23.9399C16.8429 23.7602 17.1244 23.6037 17.3513 23.4186C17.5783 23.2335 17.7882 22.9892 18.0548 22.5843C18.2825 22.2383 18.7476 22.1425 19.0936 22.3703C19.4396 22.598 19.5354 23.0631 19.3077 23.4091C18.9961 23.8825 18.689 24.2632 18.2994 24.581C17.9097 24.8988 17.475 25.123 16.9487 25.3331C16.4192 25.5444 15.9412 25.681 15.4334 25.7222C14.9256 25.7634 14.4319 25.7056 13.8753 25.5823C13.4709 25.4928 13.2156 25.0924 13.3051 24.688Z" fill="url(#paint0_linear_9990_7131)"/>
<defs>
<linearGradient id="paint0_linear_9990_7131" x1="6.49994" y1="33" x2="35.8228" y2="33.1843" gradientUnits="userSpaceOnUse">
<stop stop-color="#B1B6D6"/>
<stop offset="0.355" stop-color="#F4ACBC"/>
<stop offset="1" stop-color="#F2925C"/>
</linearGradient>
</defs>
</svg>
