<svg width="40" height="40" viewBox="0 0 40 40" fill="none" xmlns="http://www.w3.org/2000/svg">
<path fill-rule="evenodd" clip-rule="evenodd" d="M9.00944 17.2877C8.32602 17.9711 8.32602 19.0791 9.00944 19.7626L11.8379 22.591C12.5213 23.2744 13.6293 23.2744 14.3127 22.591L16.6234 20.2803C16.6729 20.3463 16.7277 20.4096 16.7877 20.4697L17.6718 21.3537L12.5453 26.4801C11.8619 27.1635 11.8619 28.2716 12.5453 28.955L12.7073 29.117C13.3907 29.8004 14.4987 29.8004 15.1822 29.117L20.3086 23.9905L20.8715 24.5534C20.876 24.9953 21.0468 25.4358 21.384 25.773L24.9195 29.3085C25.6029 29.9919 26.7109 29.9919 27.3944 29.3085L28.1015 28.6014C28.7849 27.918 28.7849 26.81 28.1015 26.1265L24.5659 22.591C24.2288 22.2538 23.7882 22.083 23.3463 22.0785L21.9142 20.6464L23.6819 18.8786L23.7311 18.9278C24.4958 19.6925 25.764 19.5875 26.3926 18.7076L28.7496 15.4077C29.2468 14.7116 29.1679 13.758 28.563 13.1531L28.3468 12.9369C27.7419 12.332 26.7883 12.2531 26.0922 12.7503L22.7924 15.1073C21.9124 15.7359 21.8074 17.0042 22.5721 17.7688L22.6212 17.818L20.8535 19.5857L19.2626 17.9948C19.2026 17.9348 19.1392 17.88 19.0732 17.8305L21.3838 15.5199C22.0672 14.8365 22.0672 13.7285 21.3838 13.045L18.5554 10.2166C17.872 9.53319 16.7639 9.53319 16.0805 10.2166L9.00944 17.2877ZM20.3231 21.1768L20.3133 21.1668L18.2019 19.0555C18.1043 18.9578 17.946 18.9578 17.8484 19.0555C17.7507 19.1531 17.7507 19.3114 17.8484 19.409L21.5607 23.1213L21.9143 22.7678L20.333 21.1865L20.3231 21.1768ZM19.2479 22.9299L18.7324 22.4144L13.606 27.5408C13.5084 27.6384 13.5084 27.7967 13.606 27.8943L13.7679 28.0563C13.8656 28.1539 14.0239 28.1539 14.1215 28.0563L19.2479 22.9299ZM10.0701 18.7019C9.97247 18.6043 9.97247 18.446 10.0701 18.3483L17.1412 11.2773C17.2388 11.1796 17.3971 11.1796 17.4947 11.2773L20.3231 14.1057C20.4208 14.2033 20.4208 14.3616 20.3231 14.4593L13.2521 21.5303C13.1544 21.628 12.9962 21.628 12.8985 21.5303L10.0701 18.7019ZM22.4446 24.3588C22.347 24.4564 22.347 24.6147 22.4446 24.7123L25.9801 28.2479C26.0778 28.3455 26.2361 28.3455 26.3337 28.2479L27.0408 27.5408C27.1384 27.4431 27.1384 27.2848 27.0408 27.1872L23.5053 23.6517C23.4076 23.554 23.2493 23.554 23.1517 23.6517L22.4446 24.3588ZM23.6328 16.7082C23.5235 16.5989 23.5385 16.4177 23.6642 16.3279L26.9641 13.9709C27.0635 13.8999 27.1997 13.9112 27.2861 13.9976L27.5023 14.2138C27.5888 14.3002 27.6 14.4364 27.529 14.5359L25.172 17.8357C25.0822 17.9614 24.901 17.9764 24.7918 17.8672L23.6328 16.7082Z" fill="url(#paint0_linear_9990_7218)"/>
<defs>
<linearGradient id="paint0_linear_9990_7218" x1="20.9999" y1="38" x2="40.2448" y2="19.5042" gradientUnits="userSpaceOnUse">
<stop stop-color="#B1B6D6"/>
<stop offset="0.355" stop-color="#F4ACBC"/>
<stop offset="1" stop-color="#F2925C"/>
</linearGradient>
</defs>
</svg>
