<svg width="40" height="40" viewBox="0 0 40 40" xmlns="http://www.w3.org/2000/svg">
<path id= "apple" d="M25.0856 9.66843L25.8282 9.56316C25.7772 9.2038 25.4763 8.9325 25.1136 8.91896L25.0856 9.66843ZM21.7436 13.3874C21.7836 14.1364 21.7839 14.1363 21.7842 14.1363L21.7848 14.1363L21.7861 14.1362L21.7893 14.136L21.7971 14.1355L21.8189 14.134C21.8361 14.1326 21.8587 14.1306 21.8862 14.1276C21.9412 14.1217 22.016 14.1121 22.107 14.0966C22.2887 14.0655 22.5379 14.0104 22.8243 13.9125C23.3955 13.7172 24.1345 13.3449 24.7701 12.6377C25.4087 11.9271 25.6768 11.1745 25.7828 10.5969C25.8356 10.3092 25.8486 10.0637 25.8477 9.88513C25.8473 9.79561 25.8434 9.72216 25.8391 9.66772C25.837 9.64047 25.8348 9.61791 25.8328 9.60038L25.8301 9.57789L25.8291 9.56954L25.8286 9.5661L25.8284 9.56456L25.8283 9.56384C25.8282 9.5635 25.8282 9.56316 25.0856 9.66843C25.1136 8.91896 25.1132 8.91894 25.1129 8.91893L25.1121 8.9189L25.1106 8.91885L25.1071 8.91874L25.0986 8.91852L25.0759 8.91819C25.0582 8.91807 25.0355 8.91819 25.0082 8.9189C24.9536 8.92032 24.8801 8.92409 24.791 8.93301C24.6133 8.95082 24.3706 8.98944 24.0901 9.07238C23.5266 9.23896 22.8069 9.58596 22.1668 10.2982C21.5297 11.0073 21.238 11.7817 21.105 12.3707C21.0384 12.666 21.0104 12.9195 20.9992 13.1034C20.9936 13.1956 20.9921 13.271 20.9923 13.3263C20.9923 13.3539 20.9928 13.3766 20.9933 13.3939L20.9941 13.4158L20.9945 13.4237L20.9946 13.4268L20.9947 13.4282L20.9947 13.4288C20.9947 13.4291 20.9948 13.4294 21.7436 13.3874ZM21.7436 13.3874L21.7836 14.1364C21.3707 14.1584 21.0179 13.8422 20.9948 13.4294L21.7436 13.3874ZM23.2825 11.3008C22.9693 11.6495 22.7789 12.0249 22.6637 12.3628C22.9884 12.212 23.3419 11.9828 23.6544 11.635C23.9706 11.2832 24.144 10.9221 24.2386 10.6102C23.9395 10.7372 23.5994 10.9482 23.2825 11.3008ZM21.7 12.6387L21.6983 12.6388C21.6978 12.6388 21.6985 12.6388 21.7005 12.6386L21.7 12.6387ZM15.2694 10.8304C15.3631 10.4269 15.7661 10.1758 16.1696 10.2695L16 11C16.1696 10.2695 16.1698 10.2695 16.1699 10.2695L16.1702 10.2696L16.171 10.2698L16.1732 10.2703L16.18 10.2719L16.2025 10.2773C16.2214 10.282 16.2481 10.2886 16.2816 10.2973C16.3487 10.3146 16.4434 10.34 16.559 10.3736C16.7894 10.4405 17.1066 10.541 17.4541 10.6759C18.1125 10.9314 19.019 11.3614 19.5725 12.0156C20.0937 12.6315 20.375 13.5331 20.5288 14.1801C20.5842 14.4131 20.6269 14.6305 20.6591 14.8159C20.7772 14.7876 20.9061 14.7536 21.047 14.714C21.1841 14.6755 21.3346 14.6312 21.4937 14.5843L21.4938 14.5842C21.8314 14.4848 22.2075 14.3739 22.5764 14.2835C23.6792 14.0133 25.0477 13.8318 26.3433 14.4988C27.5979 15.1447 28.4941 15.9097 29.0464 17.0327C29.5832 18.124 29.75 19.4661 29.75 21.1655C29.75 23.2432 29.1027 25.4972 27.8896 27.2214C26.6686 28.9569 24.8198 30.2172 22.4572 30.0821C21.8267 30.046 21.3198 29.8385 20.9397 29.6828L20.913 29.6719C20.5034 29.5044 20.2637 29.4155 20 29.4155C19.7363 29.4155 19.4966 29.5044 19.087 29.6719L19.0603 29.6828C18.6801 29.8385 18.1733 30.046 17.5428 30.0821C15.1802 30.2172 13.3314 28.9569 12.1104 27.2214C10.8973 25.4972 10.25 23.2432 10.25 21.1655C10.25 19.4661 10.4168 18.124 10.9536 17.0327C11.5059 15.9097 12.4021 15.1447 13.6567 14.4988C14.9523 13.8318 16.3208 14.0133 17.4236 14.2835C17.7925 14.3739 18.1686 14.4848 18.5062 14.5842C18.6653 14.6311 18.8159 14.6755 18.953 14.714C19.0112 14.7303 19.0673 14.7457 19.1215 14.7602C19.1058 14.685 19.0885 14.607 19.0695 14.527C18.9227 13.9097 18.704 13.3113 18.4275 12.9845C18.1349 12.6387 17.5414 12.3187 16.9114 12.0743C16.6146 11.9591 16.3405 11.8721 16.1405 11.814C16.041 11.7851 15.9609 11.7636 15.9068 11.7497C15.8798 11.7427 15.8593 11.7376 15.8463 11.7344L15.8325 11.7311L15.8304 11.7306L15.8302 11.7305L15.8298 11.7305C15.4267 11.6365 15.1758 11.2337 15.2694 10.8304ZM17.0666 15.7404C16.0512 15.4916 15.1382 15.4232 14.3433 15.8324C13.2688 16.3857 12.665 16.9519 12.2996 17.6948C11.9186 18.4692 11.75 19.5275 11.75 21.1655C11.75 22.963 12.3178 24.9093 13.3372 26.3583C14.3488 27.7962 15.75 28.6822 17.4572 28.5845C17.8207 28.5637 18.1212 28.4464 18.5191 28.2836L18.5578 28.2677C18.9252 28.1171 19.417 27.9155 20 27.9155C20.583 27.9155 21.0748 28.1171 21.4422 28.2677L21.4809 28.2836C21.8788 28.4464 22.1793 28.5637 22.5428 28.5845C24.25 28.6822 25.6512 27.7962 26.6628 26.3583C27.6822 24.9093 28.25 22.963 28.25 21.1655C28.25 19.5275 28.0814 18.4692 27.7004 17.6948C27.335 16.9519 26.7312 16.3857 25.6567 15.8324C24.8618 15.4232 23.9488 15.4916 22.9334 15.7404C22.5963 15.823 22.2835 15.9154 21.9664 16.009C21.7977 16.0588 21.6278 16.109 21.4524 16.1582C20.9863 16.289 20.4731 16.4156 20 16.4156C19.5269 16.4156 19.0137 16.289 18.5476 16.1582C18.3722 16.109 18.2024 16.0588 18.0337 16.009L18.0337 16.009L18.0336 16.009C17.7165 15.9154 17.4037 15.823 17.0666 15.7404Z"
clip-rule="non-zero"  fill="url(#paint0_linear_9990_7159)"/>
<defs>
<linearGradient id="paint0_linear_9990_7159" x1="8" y1="33" x2="31.5987" y2="34.2151" gradientUnits="userSpaceOnUse">
<stop stop-color="#B1B6D6"/>
<stop offset="0.355" stop-color="#F4ACBC"/>
<stop offset="1" stop-color="#F2925C"/>
</linearGradient>
</defs>
</svg>
