<svg width="40" height="40" viewBox="0 0 40 40" fill="none" xmlns="http://www.w3.org/2000/svg">
<path d="M10 23.5V17.2288C10 16.2973 11.286 15.7783 12.1194 16.1943C12.7113 16.4898 13.3663 16.6584 14 16.5C15.1208 16.2198 16.0846 14.6833 16.7154 13.3866C17.0794 12.6383 18.1721 12.5082 18.6337 13.2005C19.6761 14.7642 21.1163 16.9245 21.5 17.5C21.7235 17.8352 21.8832 17.9949 22.5 18.3245M10 23.5L10.015 24.054C10.0442 25.1371 10.9307 26 12.0142 26H29.3617C30.3445 26 31.1515 25.2758 31.0539 24.2979C31.0298 24.0557 30.9956 23.7894 30.9483 23.5M10 23.5H30.9483M30.9483 23.5C30.8065 22.6328 30.5264 21.8509 30 21.5C28.8352 20.7235 24.6434 19.4699 22.5 18.3245M19.6866 19.3245L22.5 18.3245M18.3958 17.0132L20.6034 16.2197" stroke="url(#paint0_linear_9990_7238)" stroke-width="1.5" stroke-linecap="round"/>
<defs>
<linearGradient id="paint0_linear_9990_7238" x1="5.5" y1="29.5" x2="38.0803" y2="35.6012" gradientUnits="userSpaceOnUse">
<stop stop-color="#B1B6D6"/>
<stop offset="0.355" stop-color="#F4ACBC"/>
<stop offset="1" stop-color="#F2925C"/>
</linearGradient>
</defs>
</svg>
