<svg width="40" height="40" viewBox="0 0 40 40" fill="none" xmlns="http://www.w3.org/2000/svg">
<path  d="M12 10.25C10.4812 10.25 9.25 11.4812 9.25 13V17.3535C8.09575 17.68 7.25 18.7412 7.25 20V25C7.25 25.9665 8.0335 26.75 9 26.75H9.26772C9.25604 26.8317 9.25 26.9151 9.25 27V28C9.25 28.9665 10.0335 29.75 11 29.75C11.9665 29.75 12.75 28.9665 12.75 28V27C12.75 26.9151 12.744 26.8317 12.7323 26.75H27.2677C27.256 26.8317 27.25 26.9151 27.25 27V28C27.25 28.9665 28.0335 29.75 29 29.75C29.9665 29.75 30.75 28.9665 30.75 28V27C30.75 26.9151 30.744 26.8317 30.7323 26.75H31C31.9665 26.75 32.75 25.9665 32.75 25V20C32.75 18.7412 31.9043 17.68 30.75 17.3535V13C30.75 11.4812 29.5188 10.25 28 10.25H12ZM29 25.25H31C31.1381 25.25 31.25 25.1381 31.25 25V20C31.25 19.3096 30.6904 18.75 30 18.75H26H22H18H14H10C9.30964 18.75 8.75 19.3096 8.75 20V25C8.75 25.1381 8.86193 25.25 9 25.25H11H29ZM29 26.75C28.8619 26.75 28.75 26.8619 28.75 27V28C28.75 28.1381 28.8619 28.25 29 28.25C29.1381 28.25 29.25 28.1381 29.25 28V27C29.25 26.8619 29.1381 26.75 29 26.75ZM10.75 27C10.75 26.8619 10.8619 26.75 11 26.75C11.1381 26.75 11.25 26.8619 11.25 27V28C11.25 28.1381 11.1381 28.25 11 28.25C10.8619 28.25 10.75 28.1381 10.75 28V27ZM29.25 17.25H27.7323C27.744 17.1683 27.75 17.0849 27.75 17C27.75 16.0335 26.9665 15.25 26 15.25H22C21.0335 15.25 20.25 16.0335 20.25 17C20.25 17.0849 20.256 17.1683 20.2677 17.25H19.7323C19.744 17.1683 19.75 17.0849 19.75 17C19.75 16.0335 18.9665 15.25 18 15.25H14C13.0335 15.25 12.25 16.0335 12.25 17C12.25 17.0849 12.256 17.1683 12.2677 17.25H10.75V13C10.75 12.3096 11.3096 11.75 12 11.75H28C28.6904 11.75 29.25 12.3096 29.25 13V17.25ZM26.25 17C26.25 17.1381 26.1381 17.25 26 17.25H22C21.8619 17.25 21.75 17.1381 21.75 17C21.75 16.8619 21.8619 16.75 22 16.75H26C26.1381 16.75 26.25 16.8619 26.25 17ZM18 17.25C18.1381 17.25 18.25 17.1381 18.25 17C18.25 16.8619 18.1381 16.75 18 16.75H14C13.8619 16.75 13.75 16.8619 13.75 17C13.75 17.1381 13.8619 17.25 14 17.25H18Z"
 fill-rule="nonzero" clip-rule="nonzero" fill="url(#paint0_linear_9990_7190)"/>
<defs>
<linearGradient id="paint0_linear_9990_7190" x1="3" y1="33" x2="41.0701" y2="34.7691" gradientUnits="userSpaceOnUse">
<stop stop-color="#B1B6D6"/>
<stop offset="0.355" stop-color="#F4ACBC"/>
<stop offset="1" stop-color="#F2925C"/>
</linearGradient>
</defs>
</svg>
