<svg width="40" height="40" viewBox="0 0 40 40" xmlns="http://www.w3.org/2000/svg">
<path id = "bicycle" d="M19.25 11C19.25 10.5858 19.5858 10.25 20 10.25H22.2792C23.0325 10.25 23.7012 10.732 23.9394 11.4466L24.8739 14.2498L25.9649 14.2498C26.0485 14.2498 26.1265 14.2081 26.1729 14.1385L26.8761 13.0839C27.1059 12.7393 27.5716 12.6462 27.9162 12.876C28.2608 13.1058 28.3539 13.5715 28.1241 13.9161L27.4209 14.9707C27.0963 15.4575 26.5499 15.7498 25.9649 15.7498H25.3739L26.228 18.3124C26.4793 18.2714 26.7371 18.25 27 18.25C29.6234 18.25 31.75 20.3766 31.75 23C31.75 25.6234 29.6234 27.75 27 27.75C24.3766 27.75 22.25 25.6234 22.25 23C22.25 21.1685 23.2865 19.5792 24.8049 18.7865L23.9701 16.282L17.2794 20.9362C17.581 21.5603 17.75 22.2604 17.75 23C17.75 25.6234 15.6234 27.75 13 27.75C10.3766 27.75 8.25 25.6234 8.25 23C8.25 20.3766 10.3766 18.25 13 18.25C14.3441 18.25 15.5577 18.8082 16.4218 19.7055L17.6033 18.8836L16.6056 16.8882C16.5632 16.8035 16.4767 16.75 16.382 16.75H14C13.5858 16.75 13.25 16.4142 13.25 16C13.25 15.5858 13.5858 15.25 14 15.25H16.382C17.0448 15.25 17.6508 15.6245 17.9472 16.2174L18.8476 18.0181L23.4757 14.7988L22.5164 11.9209C22.4824 11.8189 22.3868 11.75 22.2792 11.75H20C19.5858 11.75 19.25 11.4142 19.25 11ZM26.2885 23.2372L25.2883 20.2367C24.3649 20.81 23.75 21.8332 23.75 23C23.75 24.7949 25.2051 26.25 27 26.25C28.7949 26.25 30.25 24.7949 30.25 23C30.25 21.2051 28.7949 19.75 27 19.75C26.9028 19.75 26.8065 19.7543 26.7114 19.7626L27.7115 22.7628C27.8425 23.1558 27.6301 23.5805 27.2372 23.7115C26.8442 23.8425 26.4195 23.6301 26.2885 23.2372ZM15.1673 20.5781L12.5712 22.384C12.2311 22.6206 12.1472 23.088 12.3837 23.428C12.6203 23.768 13.0877 23.852 13.4277 23.6154L16.0248 21.8089C16.1702 22.1777 16.25 22.5795 16.25 23C16.25 24.7949 14.7949 26.25 13 26.25C11.2051 26.25 9.75 24.7949 9.75 23C9.75 21.2051 11.2051 19.75 13 19.75C13.8327 19.75 14.5923 20.0632 15.1673 20.5781Z" 
fill-rule="nonzero" clip-rule="nonzero" fill="url(#paint0_linear_9990_7142)"/>
<defs>
<linearGradient id="paint0_linear_9990_7142" x1="5" y1="30" x2="33.8481" y2="30.1931" gradientUnits="userSpaceOnUse">
<stop stop-color="#B1B6D6"/>
<stop offset="0.355" stop-color="#F4ACBC"/>
<stop offset="1" stop-color="#F2925C"/>
</linearGradient>
</defs>
</svg>
