<svg width="40" height="40" viewBox="0 0 40 40" fill="none" xmlns="http://www.w3.org/2000/svg">
<path fill-rule="evenodd" clip-rule="evenodd" d="M15.25 11C15.25 10.0335 16.0335 9.25 17 9.25H23C23.9665 9.25 24.75 10.0335 24.75 11V12C24.75 12.0849 24.744 12.1683 24.7323 12.25H29C30.5188 12.25 31.75 13.4812 31.75 15V17.9847C31.7502 17.9945 31.7502 18.0043 31.75 18.014V27C31.75 28.5188 30.5188 29.75 29 29.75H11C9.48122 29.75 8.25 28.5188 8.25 27V17.9989V15C8.25 13.4812 9.48122 12.25 11 12.25H15.2677C15.256 12.1683 15.25 12.0849 15.25 12V11ZM9.75 19.2083C10.2436 19.4399 10.8806 19.7238 11.6135 20.0166C13.3072 20.6931 15.5571 21.4347 17.75 21.664V22C17.75 22.9665 18.5335 23.75 19.5 23.75H20.5C21.4665 23.75 22.25 22.9665 22.25 22V21.6649C24.4506 21.4449 26.7009 20.7029 28.3929 20.0238C29.1232 19.7307 29.7578 19.4459 30.25 19.2132V27C30.25 27.6904 29.6904 28.25 29 28.25H11C10.3096 28.25 9.75 27.6904 9.75 27V19.2083ZM30.25 17.5444V15C30.25 14.3096 29.6904 13.75 29 13.75H23H17H11C10.3096 13.75 9.75 14.3096 9.75 15V17.5422C9.85664 17.5955 9.9833 17.6578 10.128 17.7273C10.6246 17.966 11.3318 18.2888 12.17 18.6236C13.7698 19.2626 15.8053 19.9283 17.75 20.1549V20C17.75 19.0335 18.5335 18.25 19.5 18.25H20.5C21.4665 18.25 22.25 19.0335 22.25 20V20.1566C24.1998 19.939 26.2356 19.2733 27.8342 18.6318C28.671 18.2959 29.3765 17.9714 29.8717 17.7313C30.0166 17.6611 30.1434 17.5981 30.25 17.5444ZM23.25 12C23.25 12.1381 23.1381 12.25 23 12.25H17C16.8619 12.25 16.75 12.1381 16.75 12V11C16.75 10.8619 16.8619 10.75 17 10.75H23C23.1381 10.75 23.25 10.8619 23.25 11V12ZM19.5 22.25C19.3619 22.25 19.25 22.1381 19.25 22V20C19.25 19.8619 19.3619 19.75 19.5 19.75H20.5C20.6381 19.75 20.75 19.8619 20.75 20V22C20.75 22.1381 20.6381 22.25 20.5 22.25H19.5Z" fill="url(#paint0_linear_9990_7231)"/>
<defs>
<linearGradient id="paint0_linear_9990_7231" x1="5.5" y1="34.5" x2="40.2887" y2="33.6465" gradientUnits="userSpaceOnUse">
<stop stop-color="#B1B6D6"/>
<stop offset="0.355" stop-color="#F4ACBC"/>
<stop offset="1" stop-color="#F2925C"/>
</linearGradient>
</defs>
</svg>
