<svg width="40" height="40" viewBox="0 0 40 40" fill="none" xmlns="http://www.w3.org/2000/svg">
<path fill-rule="evenodd" clip-rule="evenodd" d="M12 10.25C9.92893 10.25 8.25 11.9289 8.25 14V22C8.25 24.0711 9.92893 25.75 12 25.75H17.25V28.25H16.6667C15.332 28.25 14.25 29.332 14.25 30.6667C14.25 31.265 14.735 31.75 15.3333 31.75H24.6667C25.265 31.75 25.75 31.265 25.75 30.6667C25.75 29.332 24.668 28.25 23.3333 28.25H22.75V25.75H28C30.0711 25.75 31.75 24.0711 31.75 22V14C31.75 11.9289 30.0711 10.25 28 10.25H12ZM21.25 28.25V25.75H18.75V28.25H21.25ZM18 29.75H16.6667C16.3104 29.75 16.0017 29.9532 15.85 30.25H24.15C23.9983 29.9532 23.6896 29.75 23.3333 29.75H22H18ZM28 24.25H22H18H12C10.7574 24.25 9.75 23.2426 9.75 22V14C9.75 12.7574 10.7574 11.75 12 11.75H28C29.2426 11.75 30.25 12.7574 30.25 14V22C30.25 23.2426 29.2426 24.25 28 24.25ZM14.4697 14.4697C14.7626 14.1768 15.2374 14.1768 15.5303 14.4697L18.5303 17.4697C18.8232 17.7626 18.8232 18.2374 18.5303 18.5303L15.5303 21.5303C15.2374 21.8232 14.7626 21.8232 14.4697 21.5303C14.1768 21.2374 14.1768 20.7626 14.4697 20.4697L16.9393 18L14.4697 15.5303C14.1768 15.2374 14.1768 14.7626 14.4697 14.4697ZM20 20.25C19.5858 20.25 19.25 20.5858 19.25 21C19.25 21.4142 19.5858 21.75 20 21.75H26C26.4142 21.75 26.75 21.4142 26.75 21C26.75 20.5858 26.4142 20.25 26 20.25H20Z" fill="url(#paint0_linear_9990_7166)"/>
<defs>
<linearGradient id="paint0_linear_9990_7166" x1="8.04734" y1="33.685" x2="39.0993" y2="34.6138" gradientUnits="userSpaceOnUse">
<stop stop-color="#B1B6D6"/>
<stop offset="0.384252" stop-color="#F4ACBC"/>
<stop offset="1" stop-color="#F2925C"/>
</linearGradient>
</defs>
</svg>
