<svg width="40" height="40" viewBox="0 0 40 40" xmlns="http://www.w3.org/2000/svg">
<path id="pot" d="M18.5 9.25C17.2574 9.25 16.25 10.2574 16.25 11.5C16.25 11.763 16.2951 12.0154 16.378 12.25H10.5C9.25736 12.25 8.25 13.2574 8.25 14.5C8.25 15.2801 8.64701 15.9675 9.25 16.3711V17.25H8.5C7.25736 17.25 6.25 18.2574 6.25 19.5C6.25 20.7426 7.25736 21.75 8.5 21.75H9.25V25C9.25 28.1756 11.8244 30.75 15 30.75H25C28.1756 30.75 30.75 28.1756 30.75 25V21.75H31.5C32.7426 21.75 33.75 20.7426 33.75 19.5C33.75 18.2574 32.7426 17.25 31.5 17.25H30.75V16.3711C31.353 15.9675 31.75 15.2801 31.75 14.5C31.75 13.2574 30.7426 12.25 29.5 12.25H23.622C23.7049 12.0154 23.75 11.763 23.75 11.5C23.75 10.2574 22.7426 9.25 21.5 9.25H18.5ZM9.25 20.25V18.75H8.5C8.08579 18.75 7.75 19.0858 7.75 19.5C7.75 19.9142 8.08579 20.25 8.5 20.25H9.25ZM10.75 21.75V25C10.75 27.3472 12.6528 29.25 15 29.25H25C27.3472 29.25 29.25 27.3472 29.25 25V21.75V17.25V16.75H10.75V17.25V21.75ZM31.5 20.25H30.75V18.75H31.5C31.9142 18.75 32.25 19.0858 32.25 19.5C32.25 19.9142 31.9142 20.25 31.5 20.25ZM21.5 12.25C21.9142 12.25 22.25 11.9142 22.25 11.5C22.25 11.0858 21.9142 10.75 21.5 10.75H18.5C18.0858 10.75 17.75 11.0858 17.75 11.5C17.75 11.9142 18.0858 12.25 18.5 12.25H21.5ZM18.5 13.75H10.5C10.0858 13.75 9.75 14.0858 9.75 14.5C9.75 14.9142 10.0858 15.25 10.5 15.25H29.5C29.9142 15.25 30.25 14.9142 30.25 14.5C30.25 14.0858 29.9142 13.75 29.5 13.75H21.5H18.5Z" 
fill-rule="nonzero" clip-rule="nonzero" fill="url(#paint0_linear_9990_7271)"/>
<defs>
<linearGradient id="paint0_linear_9990_7271" x1="6" y1="34" x2="39.2508" y2="32.4869" gradientUnits="userSpaceOnUse">
<stop stop-color="#B1B6D6"/>
<stop offset="0.355" stop-color="#F4ACBC"/>
<stop offset="1" stop-color="#F2925C"/>
</linearGradient>
</defs>
</svg>
