<svg width="40" height="40" viewBox="0 0 40 40" fill="none" xmlns="http://www.w3.org/2000/svg">
<path fill-rule="evenodd" clip-rule="evenodd" d="M15.75 15C15.75 14.0335 14.9665 13.25 14 13.25H13C12.0335 13.25 11.25 14.0335 11.25 15V15.2677C11.1683 15.256 11.0849 15.25 11 15.25H10C9.0335 15.25 8.25 16.0335 8.25 17V17.75H7.5C6.5335 17.75 5.75 18.5335 5.75 19.5V20.5C5.75 21.4665 6.5335 22.25 7.5 22.25H8.25V23C8.25 23.9665 9.0335 24.75 10 24.75H11C11.0849 24.75 11.1683 24.744 11.25 24.7323V25C11.25 25.9665 12.0335 26.75 13 26.75H14C14.9665 26.75 15.75 25.9665 15.75 25V22.25H24.25V25C24.25 25.9665 25.0335 26.75 26 26.75H27C27.9665 26.75 28.75 25.9665 28.75 25V24.7323C28.8317 24.744 28.9151 24.75 29 24.75H30C30.9665 24.75 31.75 23.9665 31.75 23V22.25H32.5C33.4665 22.25 34.25 21.4665 34.25 20.5V19.5C34.25 18.5335 33.4665 17.75 32.5 17.75H31.75V17C31.75 16.0335 30.9665 15.25 30 15.25H29C28.9151 15.25 28.8317 15.256 28.75 15.2677V15C28.75 14.0335 27.9665 13.25 27 13.25H26C25.0335 13.25 24.25 14.0335 24.25 15V17.75H15.75V15ZM9.75 21.5V23C9.75 23.1381 9.86193 23.25 10 23.25H11C11.1381 23.25 11.25 23.1381 11.25 23V17C11.25 16.8619 11.1381 16.75 11 16.75H10C9.86193 16.75 9.75 16.8619 9.75 17V18.5V21.5ZM8.25 19.25V20.75H7.5C7.36193 20.75 7.25 20.6381 7.25 20.5V19.5C7.25 19.3619 7.36193 19.25 7.5 19.25H8.25ZM32.5 20.75H31.75V19.25H32.5C32.6381 19.25 32.75 19.3619 32.75 19.5V20.5C32.75 20.6381 32.6381 20.75 32.5 20.75ZM30 16.75C30.1381 16.75 30.25 16.8619 30.25 17V18.5V21.5V23C30.25 23.1381 30.1381 23.25 30 23.25H29C28.8619 23.25 28.75 23.1381 28.75 23V17C28.75 16.8619 28.8619 16.75 29 16.75H30ZM14.25 15C14.25 14.8619 14.1381 14.75 14 14.75H13C12.8619 14.75 12.75 14.8619 12.75 15V17V23V25C12.75 25.1381 12.8619 25.25 13 25.25H14C14.1381 25.25 14.25 25.1381 14.25 25V21.5V18.5V15ZM15.75 20.75V19.25H24.25V20.75H15.75ZM25.75 18.5V21.5V25C25.75 25.1381 25.8619 25.25 26 25.25H27C27.1381 25.25 27.25 25.1381 27.25 25V23V17V15C27.25 14.8619 27.1381 14.75 27 14.75H26C25.8619 14.75 25.75 14.8619 25.75 15V18.5Z" fill="url(#paint0_linear_9990_7208)"/>
<defs>
<linearGradient id="paint0_linear_9990_7208" x1="2" y1="29" x2="40.1138" y2="29.7837" gradientUnits="userSpaceOnUse">
<stop offset="0.0607997" stop-color="#B1B6D6"/>
<stop offset="0.34357" stop-color="#F4ACBC"/>
<stop offset="1" stop-color="#F2925C"/>
</linearGradient>
</defs>
</svg>
