<svg width="40" height="40" viewBox="0 0 40 40" fill="none" xmlns="http://www.w3.org/2000/svg">
<path fill-rule="evenodd" clip-rule="evenodd" d="M20.75 10.5C20.75 10.3619 20.8619 10.25 21 10.25H27C27.4142 10.25 27.75 9.91421 27.75 9.5C27.75 9.08579 27.4142 8.75 27 8.75H21C20.0335 8.75 19.25 9.53354 19.25 10.5001L19.2501 13.25H14C11.3766 13.25 9.25 15.3766 9.25 18V24H9.24976L9.25007 25C9.25007 27.6233 11.3767 29.75 14.0001 29.75C16.6234 29.75 18.7501 27.6233 18.7501 25L18.75 24.75H21.25L21.25 24.9765V25C21.25 27.6233 23.3766 29.75 26 29.75C28.6234 29.75 30.75 27.6233 30.75 25V24V18C30.75 15.3766 28.6234 13.25 26 13.25H20.7501L20.75 10.5ZM20.0001 14.75C20.0001 14.75 20.0001 14.75 20.0001 14.75H14C12.2051 14.75 10.75 16.2051 10.75 18V24L10.7498 24.0191L10.7501 25C10.7501 26.7949 12.2051 28.25 14.0001 28.25C15.795 28.25 17.2501 26.7949 17.2501 25L17.25 24.6958V24.6949V24.6926V24.6924V24.6921V24.6919V24.6918V24.6917V24.6916V24.6915C17.2499 24.5107 17.2499 24.3325 17.2501 24.01L17.25 24C17.25 23.5858 17.5858 23.25 18 23.25H22C22.4142 23.25 22.75 23.5858 22.75 24V24.0006H22.7504C22.75 24.4888 22.75 24.6475 22.75 24.9764V25C22.75 26.7949 24.2051 28.25 26 28.25C27.7949 28.25 29.25 26.7949 29.25 25L29.25 24.0042L29.25 24V18C29.25 16.2051 27.7949 14.75 26 14.75H20.0001ZM15.75 17.5C15.75 17.0858 15.4142 16.75 15 16.75C14.5858 16.75 14.25 17.0858 14.25 17.5V18.75H13C12.5858 18.75 12.25 19.0858 12.25 19.5C12.25 19.9142 12.5858 20.25 13 20.25H14.25V21.5C14.25 21.9142 14.5858 22.25 15 22.25C15.4142 22.25 15.75 21.9142 15.75 21.5V20.25H17C17.4142 20.25 17.75 19.9142 17.75 19.5C17.75 19.0858 17.4142 18.75 17 18.75H15.75V17.5ZM25.5 18.5C26.0523 18.5 26.5 18.0523 26.5 17.5C26.5 16.9477 26.0523 16.5 25.5 16.5C24.9477 16.5 24.5 16.9477 24.5 17.5C24.5 18.0523 24.9477 18.5 25.5 18.5ZM24.5 19.5C24.5 20.0523 24.0523 20.5 23.5 20.5C22.9477 20.5 22.5 20.0523 22.5 19.5C22.5 18.9477 22.9477 18.5 23.5 18.5C24.0523 18.5 24.5 18.9477 24.5 19.5ZM27.5 20.5C28.0523 20.5 28.5 20.0523 28.5 19.5C28.5 18.9477 28.0523 18.5 27.5 18.5C26.9477 18.5 26.5 18.9477 26.5 19.5C26.5 20.0523 26.9477 20.5 27.5 20.5ZM26.5 21.5C26.5 22.0523 26.0523 22.5 25.5 22.5C24.9477 22.5 24.5 22.0523 24.5 21.5C24.5 20.9477 24.9477 20.5 25.5 20.5C26.0523 20.5 26.5 20.9477 26.5 21.5Z" fill="url(#paint0_linear_9990_7241)"/>
<defs>
<linearGradient id="paint0_linear_9990_7241" x1="7.5" y1="33" x2="38.6889" y2="32.8177" gradientUnits="userSpaceOnUse">
<stop stop-color="#B1B6D6"/>
<stop offset="0.355" stop-color="#F4ACBC"/>
<stop offset="1" stop-color="#F2925C"/>
</linearGradient>
</defs>
</svg>
